# AST/ASF file generated using VICON BodyLanguage
# -----------------------------------------------
:version 1.10
:name VICON
:units
  mass 1.0
  length 0.45
  angle deg
:documentation
   .ast/.asf automatically generated from VICON data using
   VICON BodyBuilder and BodyLanguage model FoxedUp or BRILLIANT.MOD
:root
   order TX TY TZ RX RY RZ
   axis XYZ
   position 0 0 0  
   orientation 0 0 0 
:bonedata
  begin
     id 1 
     name lhipjoint
     direction 0.661853 -0.702389 0.261917 
     length 2.64193 
     axis 0 0 0  XYZ
  end
  begin
     id 2 
     name lfemur
     direction 0.34202 -0.939693 0  
     length 7.01722  
     axis 0 0 20  XYZ
    dof rx ry rz
    limits (-160.0 20.0)
           (-70.0 70.0)
           (-60.0 70.0)
  end
  begin
     id 3 
     name ltibia
     direction 0.34202 -0.939693 0   
     length 8.25008   
     axis 0 0 20   XYZ
    dof rx
    limits (-10.0 170.0)
  end
  begin
     id 4 
     name lfoot
     direction 0.0709916 -0.195048 0.978221   
     length 2.31941   
     axis -90 7.62852e-016 20   XYZ
    dof rx rz
    limits (-45.0 90.0)
           (-70.0 20.0)
  end
  begin
     id 5 
     name ltoes
     direction 1.53586e-011 -4.22017e-011 1   
     length 1.16486   
     axis -90 7.62852e-016 20   XYZ
    dof rx
    limits (-90.0 20.0)
  end
  begin
     id 6 
     name rhipjoint
     direction -0.638185 -0.721362 0.268992   
     length 2.57244  
     axis 0 0 0  XYZ 
  end
  begin
     id 7 
     name rfemur
     direction -0.34202 -0.939693 0   
     length 7.07017   
     axis 0 0 -20   XYZ
    dof rx ry rz
    limits (-160.0 20.0)
           (-70.0 70.0)
           (-70.0 60.0)
  end
  begin
     id 8 
     name rtibia
     direction -0.34202 -0.939693 0   
     length 8.20386   
     axis 0 0 -20   XYZ
    dof rx
    limits (-10.0 170.0)
 end
 begin
     id 9 
     name rfoot
     direction -0.0822429 -0.225961 0.970658   
     length 2.32215  
     axis -90 -7.62852e-016 -20   XYZ
    dof rx rz
    limits (-45.0 90.0)
           (-20.0 70.0)
  end
  begin
     id 10 
     name rtoes
     direction -1.53597e-011 -4.21689e-011 1   
     length 1.16333   
     axis -90 -7.62852e-016 -20   XYZ
    dof rx
    limits (-90.0 20.0)
  end
  begin
     id 11 
     name lowerback
     direction -0.0131557 0.998589 -0.0514484   
     length 2.14993   
     axis 0 0 0   XYZ
    dof rx ry rz
    limits (-20.0 45.0)
           (-30.0 30.0)
           (-30.0 30.0)
  end
  begin
     id 12 
     name upperback
     direction -0.000776481 0.999993 0.00352685   
     length 2.15301   
     axis 0 0 0   XYZ
    dof rx ry rz
    limits (-20.0 45.0)
           (-30.0 30.0)
           (-30.0 30.0)
  end
  begin
     id 13 
     name thorax
     direction 0.00438186 0.999609 0.0276143   
     length 2.15424   
     axis 0 0 0   XYZ
    dof rx ry rz
    limits (-20.0 45.0)
           (-30.0 30.0)
           (-30.0 30.0)
  end
  begin
     id 14 
     name lowerneck
     direction -0.0488006 0.998094 0.0377807   
     length 1.90481   
     axis 0 0 0   XYZ
    dof rx ry rz
    limits (-20.0 45.0)
           (-30.0 30.0)
           (-30.0 30.0)
  end
  begin
     id 15 
     name upperneck
     direction 0.0443769 0.990702 -0.12861   
     length 1.91305   
     axis 0 0 0   XYZ
    dof rx ry rz
    limits (-20.0 45.0)
           (-30.0 30.0)
           (-30.0 30.0)
  end
  begin
     id 16
     name head
     direction 0.0165599 0.998647 -0.0492982  
     length 1.92369  
     axis 0 0 0   XYZ
    dof rx ry rz
    limits (-20.0 45.0)
           (-30.0 30.0)
           (-30.0 30.0)
  end
  begin
     id 17 
     name lclavicle
     direction 0.911936 0.410197 -0.0105506  
     length 3.52622  
     axis 0 0 0   XYZ
    dof ry rz
    limits (-20.0 10.0)
           (0.0 20.0)
  end
  begin
     id 18 
     name lhumerus
     direction 1 -4.48974e-011 -2.48591e-028   
     length 5.47651   
     axis 180 -30 -90   XYZ
    dof rx ry rz
    limits (-60.0 90.0)
           (-90.0 90.0)
           (-90.0 90.0)
  end
  begin
     id 19
     name lradius
     direction 1 -4.48938e-011 -4.40099e-027   
     length 3.09058   
     axis 180 -30 -90   XYZ
    dof rx
    limits (-10.0 170.0)
  end
  begin
     id 20
     name lwrist
     direction 1 -4.49042e-011 -2.99852e-027   
     length 1.54529   
     axis 1.95339e-015 90 90   XYZ
    dof ry
    limits (-180.0 0.0)
 end
  begin
     id 21 
     name lhand
     direction 1 -4.48815e-011 -5.98193e-027   
     length 0.771611   
     axis 3.82337e-015 90 90   XYZ
    dof rx rz
    limits (-90.0 90.0)
           (-45.0 45.0)
  end
  begin
     id 22 
     name lfingers
     direction 1 -4.49034e-011 -1.1993e-026   
     length 0.622093   
     axis 7.64668e-015 90 90   XYZ
    dof rx
    limits (0.0 90.0)
  end
  begin
     id 23
     name lthumb
     direction 0.707107 -6.34867e-011 0.707107   
     length 0.893204   
     axis -90 45 -1.62303e-014   XYZ
    dof rx rz
    limits (-45.0 45.0)
           (-45.0 45.0)
  end
  begin
     id 24 
     name rclavicle
     direction -0.93442 0.355634 -0.0195692   
     length 3.62463  
     axis 0 0 0   XYZ 
    dof ry rz
    limits (-10.0 20.0)
           (-20.0 0.0)
  end
  begin
     id 25 
     name rhumerus
     direction -1 -4.48957e-011 -1.19147e-027  
     length 5.14182   
     axis 180 30 90   XYZ
    dof rx ry rz
    limits (-90.0 60.0)
           (-90.0 90.0)
           (-90.0 90.0)
  end
  begin
     id 26 
     name rradius
     direction -1 -4.48952e-011 -3.81062e-027   
     length 3.35565   
     axis 180 30 90   XYZ
    dof rx
    limits (-10.0 170.0)
  end
  begin
     id 27 
     name rwrist
     direction -1 -4.48973e-011 -2.99621e-027   
     length 1.67782   
     axis 1.95339e-015 -90 -90   XYZ
    dof ry
    limits (-180.0 0.0)
  end
  begin
     id 28
     name rhand
     direction -1 -4.48895e-011 -5.98727e-027   
     length 0.801042   
     axis 3.82337e-015 -90 -90   XYZ
    dof rx rz
    limits (-90.0 90.0)
           (-45.0 45.0)
  end
  begin
     id 29
     name rfingers
     direction -1 -4.49065e-011 -1.19972e-026   
     length 0.645821   
     axis 7.64668e-015 -90 -90   XYZ
    dof rx
    limits (0.0 90.0)
  end
  begin
     id 30
     name rthumb
     direction -0.707107 -6.34957e-011 0.707107   
     length 0.927273   
     axis -90 -45 1.62303e-014   XYZ
    dof rx rz
    limits (-45.0 45.0)
           (-45.0 45.0)
  end
:hierarchy
  begin
    root lhipjoint rhipjoint lowerback
    lhipjoint lfemur
    lfemur ltibia
    ltibia lfoot
    lfoot ltoes
    rhipjoint rfemur
    rfemur rtibia
    rtibia rfoot
    rfoot rtoes
    lowerback upperback
    upperback thorax
    thorax lowerneck lclavicle rclavicle
    lowerneck upperneck
    upperneck head
    lclavicle lhumerus
    lhumerus lradius
    lradius lwrist
    lwrist lhand lthumb
    lhand lfingers
    rclavicle rhumerus
    rhumerus rradius
    rradius rwrist
    rwrist rhand rthumb
    rhand rfingers
  end

#!OML:ASF E:\Style4\Style4.ASF
:FULLY-SPECIFIED
:DEGREES
120
root -0.349746 17.8765 -2.4688 4.57711 -0.938217 2.62712
lowerback 10.3845 2.35445 -0.912611
upperback 4.31771 3.02564 0.0104731
thorax -1.37256 1.49836 0.179328
lowerneck -1.50655 -5.1471 -7.04493
upperneck 1.3743 -6.82947 6.05172
head 1.19369 -3.39782 3.05169
rclavicle 1.68967e-014 7.95139e-016
rhumerus -32.919 56.502 -93.7431
rradius 105.718
rwrist -33.1693
rhand -28.5214 22.5106
rfingers 7.12502
rthumb -1.88948 -7.46081
lclavicle 1.68967e-014 7.95139e-016
lhumerus -30.8681 -55.4722 94.2444
lradius 109.66
lwrist 45.0066
lhand -5.67257 26.6937
lfingers 7.12502
lthumb 20.1471 55.669
rfemur -20.2883 2.34491 16.0416
rtibia 32.3871
rfoot -15.9249 -12.4577
rtoes -10.0954
lfemur -16.2116 -0.276474 -21.3155
ltibia 28.8851
lfoot -17.5718 11.1132
ltoes -13.824
121
root -0.348426 17.8663 -2.47963 4.55458 -0.961232 2.69711
lowerback 10.5019 2.34627 -0.98444
upperback 4.38885 3.00603 -0.00743812
thorax -1.36517 1.48773 0.200123
lowerneck -1.37205 -5.1316 -7.01709
upperneck 1.23205 -6.81408 6.08913
head 1.12339 -3.39129 3.06468
rclavicle 3.97569e-015 -7.95139e-015
rhumerus -33.7633 56.5626 -94.4922
rradius 105.543
rwrist -33.2306
rhand -28.5219 22.4775
rfingers 7.12502
rthumb -1.88999 -7.49383
lclavicle 3.97569e-015 -7.95139e-015
lhumerus -32.0105 -55.3104 95.1824
lradius 109.621
lwrist 44.6327
lhand -5.74538 26.8204
lfingers 7.12502
lthumb 20.0771 55.803
rfemur -20.4839 2.34928 15.9567
rtibia 32.7052
rfoot -16.0813 -12.4152
rtoes -9.73305
lfemur -16.3985 -0.181348 -21.4022
ltibia 29.1862
lfoot -17.6081 10.9986
ltoes -13.6456
122
root -0.350895 17.8555 -2.50024 4.7275 -0.908294 2.25185
lowerback 10.5539 2.29305 -0.599027
upperback 4.38242 2.9753 0.136941
thorax -1.38846 1.47491 0.134766
lowerneck -1.34715 -5.13697 -6.98674
upperneck 1.1995 -6.82206 6.07568
head 1.10717 -3.39552 3.05522
rclavicle -2.06736e-014 -3.97569e-015
rhumerus -34.571 56.6764 -95.2
rradius 105.353
rwrist -33.1958
rhand -28.5858 22.2543
rfingers 7.12502
rthumb -1.9517 -7.71656
lclavicle -2.06736e-014 -3.97569e-015
lhumerus -33.0324 -55.1953 96.0848
lradius 109.513
lwrist 44.3106
lhand -5.9612 27.0612
lfingers 7.12502
lthumb 19.8697 56.0655
rfemur -20.8746 2.44588 16.4633
rtibia 32.9331
rfoot -16.0808 -12.5451
rtoes -9.50735
lfemur -16.9037 -0.10019 -20.8758
ltibia 29.5693
lfoot -17.6347 10.7803
ltoes -13.1274
123
root -0.350332 17.8456 -2.5151 4.70516 -0.885397 2.0375
lowerback 10.7333 2.25717 -0.407812
upperback 4.44264 2.94675 0.214879
thorax -1.41812 1.46164 0.105638
lowerneck -1.24969 -5.14243 -6.98849
upperneck 1.0733 -6.83169 6.09207
head 1.05079 -3.40138 3.0648
rclavicle -9.74045e-015 -3.97569e-016
rhumerus -35.272 56.7682 -95.8259
rradius 105.185
rwrist -33.1056
rhand -28.5093 21.8632
rfingers 7.12502
rthumb -1.87775 -8.1083
lclavicle -9.74045e-015 -3.97569e-016
lhumerus -33.9339 -55.1249 96.8737
lradius 109.424
lwrist 44.3461
lhand -6.22669 27.4032
lfingers 7.12502
lthumb 19.6144 56.4337
rfemur -20.9932 2.44512 16.7138
rtibia 33.0834
rfoot -16.075 -12.5682
rtoes -9.40742
lfemur -17.19 -0.0448856 -20.6336
ltibia 30.0255
lfoot -17.7752 10.7612
ltoes -13.5105
124
root -0.346314 17.8367 -2.52296 4.49059 -0.934996 2.03265
lowerback 11.0193 2.26151 -0.372322
upperback 4.57549 2.95369 0.20903
thorax -1.43379 1.46509 0.0704585
lowerneck -1.28728 -5.15766 -6.92125
upperneck 1.07376 -6.85054 6.06791
head 1.05501 -3.41011 3.04251
rclavicle 3.97569e-014 -1.23246e-014
rhumerus -35.9008 56.7477 -96.375
rradius 104.996
rwrist -32.7977
rhand -28.507 21.8739
rfingers 7.12502
rthumb -1.8756 -8.09763
lclavicle 3.97569e-014 -1.23246e-014
lhumerus -34.7613 -55.1706 97.614
lradius 109.305
lwrist 44.4782
lhand -6.75197 27.4087
lfingers 7.12502
lthumb 19.1094 56.4899
rfemur -20.8739 2.39633 16.7155
rtibia 33.2191
rfoot -16.1329 -12.4946
rtoes -9.4831
lfemur -17.2186 0.0532826 -20.6458
ltibia 30.4786
lfoot -18.0073 10.7378
ltoes -13.6445
125
root -0.343837 17.8267 -2.53402 4.41964 -0.963056 1.90047
lowerback 11.1411 2.25649 -0.25174
upperback 4.68722 2.95932 0.256447
thorax -1.38039 1.46853 0.0491441
lowerneck -1.27899 -5.18146 -6.93357
upperneck 1.0107 -6.88145 6.10569
head 1.03765 -3.42536 3.05766
rclavicle 8.34896e-015 8.74653e-015
rhumerus -36.4094 56.7044 -96.8071
rradius 104.816
rwrist -32.2737
rhand -28.6445 21.8903
rfingers 7.12502
rthumb -2.00835 -8.08003
lclavicle 8.34896e-015 8.74653e-015
lhumerus -35.4983 -55.2096 98.3516
lradius 109.177
lwrist 44.6125
lhand -7.44877 27.3803
lfingers 7.12502
lthumb 18.4392 56.5263
rfemur -20.9419 2.38282 16.8648
rtibia 33.4121
rfoot -16.1729 -12.4825
rtoes -9.76128
lfemur -17.3826 0.180735 -20.51
ltibia 30.8502
lfoot -18.0792 10.7025
ltoes -14.3145
126
root -0.34177 17.8154 -2.54615 4.41444 -1.01054 1.81001
lowerback 11.1742 2.2647 -0.219738
upperback 4.7932 2.97415 0.317242
thorax -1.28991 1.47564 0.0936372
lowerneck -1.27153 -5.1966 -6.97018
upperneck 0.905687 -6.89816 6.10264
head 1.00512 -3.43384 3.06434
rclavicle 6.36111e-015 -1.59028e-015
rhumerus -36.8992 56.7418 -97.2002
rradius 104.649
rwrist -31.924
rhand -28.7443 21.8043
rfingers 7.12502
rthumb -2.10478 -8.16506
lclavicle 6.36111e-015 -1.59028e-015
lhumerus -36.0936 -55.1717 99.0035
lradius 109.041
lwrist 44.8237
lhand -7.65319 27.4539
lfingers 7.12502
lthumb 18.2425 56.6184
rfemur -21.119 2.40449 16.9672
rtibia 33.6383
rfoot -16.1557 -12.5163
rtoes -10.0572
lfemur -17.6222 0.234388 -20.4101
ltibia 31.2046
lfoot -18.1971 10.6612
ltoes -14.0623
127
root -0.338552 17.803 -2.55941 4.36134 -1.04864 1.88428
lowerback 11.3035 2.26281 -0.329776
upperback 4.8683 2.9596 0.323986
thorax -1.28778 1.46685 0.160489
lowerneck -1.28074 -5.19754 -6.97304
upperneck 0.882803 -6.89686 6.03907
head 0.996549 -3.43345 3.04333
rclavicle -1.19271e-015 7.15625e-015
rhumerus -37.4102 56.7754 -97.6547
rradius 104.497
rwrist -31.7489
rhand -28.6894 21.6203
rfingers 7.12502
rthumb -2.05177 -8.34956
lclavicle -1.19271e-015 7.15625e-015
lhumerus -36.6895 -55.041 99.6143
lradius 108.883
lwrist 44.9161
lhand -7.47275 27.682
lfingers 7.12502
lthumb 18.4161 56.8303
rfemur -21.2671 2.40834 16.8697
rtibia 33.8943
rfoot -16.2222 -12.4643
rtoes -9.76143
lfemur -17.8001 0.308043 -20.5067
ltibia 31.5419
lfoot -18.2402 10.6686
ltoes -14.3705
128
root -0.33766 17.7919 -2.57202 4.34669 -1.06895 1.82333
lowerback 11.4217 2.25184 -0.314313
upperback 4.89931 2.94642 0.348344
thorax -1.32011 1.46005 0.174524
lowerneck -1.26425 -5.19482 -6.92365
upperneck 0.882357 -6.89406 5.98621
head 0.988856 -3.43243 3.01677
rclavicle -3.57812e-015 -4.77083e-015
rhumerus -37.8297 56.7726 -98.067
rradius 104.372
rwrist -31.7203
rhand -28.5719 21.598
rfingers 7.12502
rthumb -1.93825 -8.37294
lclavicle -3.57812e-015 -4.77083e-015
lhumerus -37.3375 -54.9489 100.193
lradius 108.779
lwrist 44.88
lhand -7.66949 27.7294
lfingers 7.12502
lthumb 18.2268 56.8954
rfemur -21.4461 2.3707 16.9344
rtibia 34.1492
rfoot -16.2973 -12.3952
rtoes -9.76021
lfemur -17.9924 0.370284 -20.434
ltibia 31.839
lfoot -18.3432 10.5781
ltoes -14.2608
